M48
METRIC,LZ,000.000
;FILE_FORMAT=3:3
;TYPE=PLATED
;Layer: PTH_Through
;EasyEDA v6.5.9, 2022-08-04 20:05:31
;f7d3399ff3ef42be8c4f0a230c2b0d44,4bb84c5f6c124816bf94f4484d05adb3,10
;Gerber Generator version 0.2
;Holesize 1 = 0.800 mm
T01C0.800
;Holesize 2 = 0.915 mm
T02C0.915
;Holesize 3 = 1.000 mm
T03C1.000
;Holesize 4 = 1.200 mm
T04C1.200
;Holesize 5 = 1.270 mm
T05C1.270
%
G05
G90
T01
X010033Y085090
X010033Y082550
X010033Y080010
T02
X010033Y099568
X010033Y097028
X010033Y094488
X010033Y091948
X010033Y072390
X010033Y069850
X010033Y067310
X010033Y064770
T03
X024638Y097409G85X024638Y097409
X024638Y094869G85X024638Y094869
X027178Y097409G85X027178Y097409
X027178Y094869G85X027178Y094869
X029718Y097409G85X029718Y097409
X029718Y094869G85X029718Y094869
X032258Y097409G85X032258Y097409
X032258Y094869G85X032258Y094869
X034798Y097409G85X034798Y097409
X034798Y094869G85X034798Y094869
X037338Y097409G85X037338Y097409
X037338Y094869G85X037338Y094869
X039878Y097409G85X039878Y097409
X039878Y094869G85X039878Y094869
X042418Y097409G85X042418Y097409
X042418Y094869G85X042418Y094869
X044958Y097409G85X044958Y097409
X044958Y094869G85X044958Y094869
X047498Y097409G85X047498Y097409
X047498Y094869G85X047498Y094869
X024638Y069469G85X024638Y069469
X024638Y072009G85X024638Y072009
X027178Y072009G85X027178Y072009
X029718Y072009G85X029718Y072009
X032258Y072009G85X032258Y072009
X034798Y072009G85X034798Y072009
X037338Y072009G85X037338Y072009
X039878Y072009G85X039878Y072009
X042418Y072009G85X042418Y072009
X044958Y072009G85X044958Y072009
X047498Y072009G85X047498Y072009
X047498Y069469G85X047498Y069469
X044958Y069469G85X044958Y069469
X042418Y069469G85X042418Y069469
X039878Y069469G85X039878Y069469
X037338Y069469G85X037338Y069469
X034798Y069469G85X034798Y069469
X032258Y069469G85X032258Y069469
X029718Y069469G85X029718Y069469
X027178Y069469G85X027178Y069469
T04
X011613Y047745
X011613Y052745
X011613Y042745
T05
X053663Y053459
X053663Y038059
X024262Y048257
X024262Y043259
M30
