G04 Layer: BoardOutlineLayer*
G04 EasyEDA v6.5.9, 2022-08-04 20:05:31*
G04 f7d3399ff3ef42be8c4f0a230c2b0d44,4bb84c5f6c124816bf94f4484d05adb3,10*
G04 Gerber Generator version 0.2*
G04 Scale: 100 percent, Rotated: No, Reflected: No *
G04 Dimensions in millimeters *
G04 leading zeros omitted , absolute positions ,4 integer and 5 decimal *
%FSLAX45Y45*%
%MOMM*%

%ADD10C,0.2540*%
D10*
X699998Y10499979D02*
G01*
X5699988Y10499979D01*
X5699988Y3499993D01*
X699998Y3499993D01*
X699998Y10499979D01*
X2902440Y4521200D02*
G01*
X2899994Y4499990D01*
X2899994Y4499990D02*
G01*
X2902440Y4521200D01*
X2902440Y4521200D02*
G01*
X2902440Y4521200D01*
G75*
G01*
X2921000Y4533900D02*
G02*
X2921000Y4521200I-49595J-6350D01*
X2921000Y4521200D02*
G01*
X2082800Y4521200D01*
X2082800Y4521200D02*
G01*
X2082800Y4064000D01*
X2082800Y4064000D02*
G01*
X1701800Y4064000D01*
X1701800Y4064000D02*
G01*
X1498600Y4064000D01*
X1498600Y4064000D02*
G01*
X1498600Y4521200D01*
X1498600Y4521200D02*
G01*
X863600Y4521200D01*
G75*
G01*
X863600Y4521200D02*
G02*
X863600Y4546600I48775J12700D01*
X863600Y4546600D02*
G01*
X863600Y4546600D01*
G75*
G01*
X863600Y4546600D02*
G02*
X863600Y4572000I48775J12700D01*
X863600Y4572000D02*
G01*
X863600Y4572000D01*
G75*
G01*
X863600Y4572000D02*
G02*
X863600Y4597400I48775J12700D01*
X863600Y4597400D02*
G01*
X863600Y4597400D01*
G75*
G01*
X863600Y4597400D02*
G02*
X863600Y4622800I48775J12700D01*
X863600Y4622800D02*
G01*
X863600Y5080000D01*
X863600Y5080000D02*
G01*
X2082800Y5080000D01*
X2082800Y5080000D02*
G01*
X2082800Y4622800D01*
X2082800Y4622800D02*
G01*
X2921000Y4622800D01*
X2921000Y4622800D02*
G01*
X2921000Y4550150D01*
G75*
G01*
X2921000Y4550151D02*
G02*
X2921000Y4533900I-49335J-8126D01*
X2921000Y4533900D02*
G01*
X2921000Y4533900D01*
X2921000Y4533900D02*
G01*
X2921000Y4533900D01*
X2921000Y4533900D02*
G01*
X2921000Y4533900D01*
X2909082Y4570434D02*
G01*
X2908219Y4571305D01*
G75*
G01*
X2908220Y4571305D02*
G02*
X2909083Y4570435I-35082J-35627D01*
X2909082Y4570434D02*
G01*
X2909082Y4570434D01*

%LPD*%
M02*
