G04 Layer: BottomSolderMaskLayer*
G04 EasyEDA v6.5.9, 2022-08-04 20:05:31*
G04 f7d3399ff3ef42be8c4f0a230c2b0d44,4bb84c5f6c124816bf94f4484d05adb3,10*
G04 Gerber Generator version 0.2*
G04 Scale: 100 percent, Rotated: No, Reflected: No *
G04 Dimensions in millimeters *
G04 leading zeros omitted , absolute positions ,4 integer and 5 decimal *
%FSLAX45Y45*%
%MOMM*%

%ADD10C,2.5016*%
%ADD11C,1.7112*%
%ADD12C,3.1496*%
%ADD13C,3.1516*%
%ADD14C,1.6256*%
%ADD15C,1.7272*%

%LPD*%
G36*
X1011301Y4649421D02*
G01*
X1009777Y4649675D01*
X1008253Y4650437D01*
X1007237Y4651453D01*
X1006475Y4652977D01*
X1006220Y4654501D01*
X1006347Y4654550D01*
X1006347Y4894579D01*
X1006220Y4894501D01*
X1006475Y4896025D01*
X1007237Y4897549D01*
X1008253Y4898565D01*
X1009777Y4899327D01*
X1011301Y4899581D01*
X1011428Y4899660D01*
X1311402Y4899660D01*
X1311300Y4899581D01*
X1312824Y4899327D01*
X1314348Y4898565D01*
X1315364Y4897549D01*
X1316126Y4896025D01*
X1316380Y4894501D01*
X1316481Y4894579D01*
X1316481Y4654550D01*
X1316380Y4654501D01*
X1316126Y4652977D01*
X1315364Y4651453D01*
X1314348Y4650437D01*
X1312824Y4649675D01*
X1311300Y4649421D01*
X1311402Y4649470D01*
X1011428Y4649470D01*
G37*
D10*
G01*
X1161313Y5274513D03*
G01*
X1161313Y4274489D03*
D11*
G01*
X2463800Y9740900D03*
G01*
X2463800Y9486900D03*
G01*
X2717800Y9740900D03*
G01*
X2717800Y9486900D03*
G01*
X2971800Y9740900D03*
G01*
X2971800Y9486900D03*
G01*
X3225800Y9740900D03*
G01*
X3225800Y9486900D03*
G01*
X3479800Y9740900D03*
G01*
X3479800Y9486900D03*
G01*
X3733800Y9740900D03*
G01*
X3733800Y9486900D03*
G01*
X3987800Y9740900D03*
G01*
X3987800Y9486900D03*
G01*
X4241800Y9740900D03*
G01*
X4241800Y9486900D03*
G01*
X4495800Y9740900D03*
G01*
X4495800Y9486900D03*
G01*
X4749800Y9740900D03*
G01*
X4749800Y9486900D03*
G01*
X2463800Y6946900D03*
G01*
X2463800Y7200900D03*
G01*
X2717800Y7200900D03*
G01*
X2971800Y7200900D03*
G01*
X3225800Y7200900D03*
G01*
X3479800Y7200900D03*
G01*
X3733800Y7200900D03*
G01*
X3987800Y7200900D03*
G01*
X4241800Y7200900D03*
G01*
X4495800Y7200900D03*
G01*
X4749800Y7200900D03*
G01*
X4749800Y6946900D03*
G01*
X4495800Y6946900D03*
G01*
X4241800Y6946900D03*
G01*
X3987800Y6946900D03*
G01*
X3733800Y6946900D03*
G01*
X3479800Y6946900D03*
G01*
X3225800Y6946900D03*
G01*
X2971800Y6946900D03*
G01*
X2717800Y6946900D03*
D12*
G01*
X5366258Y5345937D03*
G01*
X5366258Y3805936D03*
G01*
X2426208Y4825745D03*
D13*
G01*
X2426208Y4325873D03*
D14*
G01*
X1003300Y8509000D03*
G01*
X1003300Y8255000D03*
G01*
X1003300Y8001000D03*
D15*
G01*
X1003300Y9956800D03*
G01*
X1003300Y9702800D03*
G01*
X1003300Y9448800D03*
G01*
X1003300Y9194800D03*
D14*
G01*
X1003300Y7239000D03*
G01*
X1003300Y6985000D03*
G01*
X1003300Y6731000D03*
G01*
X1003300Y6477000D03*
M02*
