G04 Layer: TopSilkscreenLayer*
G04 EasyEDA v6.5.9, 2022-08-04 20:05:31*
G04 f7d3399ff3ef42be8c4f0a230c2b0d44,4bb84c5f6c124816bf94f4484d05adb3,10*
G04 Gerber Generator version 0.2*
G04 Scale: 100 percent, Rotated: No, Reflected: No *
G04 Dimensions in millimeters *
G04 leading zeros omitted , absolute positions ,4 integer and 5 decimal *
%FSLAX45Y45*%
%MOMM*%

%ADD10C,0.2032*%
%ADD11C,0.2500*%
%ADD12C,0.2030*%
%ADD13C,0.2540*%
%ADD14C,0.1270*%
%ADD15C,0.0131*%

%LPD*%
D10*
X1500378Y7416800D02*
G01*
X1306576Y7370571D01*
X1500378Y7324344D02*
G01*
X1306576Y7370571D01*
X1500378Y7324344D02*
G01*
X1306576Y7278370D01*
X1500378Y7232142D02*
G01*
X1306576Y7278370D01*
X1380489Y7171181D02*
G01*
X1380489Y7060184D01*
X1398778Y7060184D01*
X1417320Y7069581D01*
X1426463Y7078726D01*
X1435862Y7097268D01*
X1435862Y7124954D01*
X1426463Y7143495D01*
X1408176Y7161784D01*
X1380489Y7171181D01*
X1361947Y7171181D01*
X1334262Y7161784D01*
X1315720Y7143495D01*
X1306576Y7124954D01*
X1306576Y7097268D01*
X1315720Y7078726D01*
X1334262Y7060184D01*
X1435862Y6888479D02*
G01*
X1306576Y6888479D01*
X1408176Y6888479D02*
G01*
X1426463Y6907021D01*
X1435862Y6925310D01*
X1435862Y6953250D01*
X1426463Y6971537D01*
X1408176Y6990079D01*
X1380489Y6999223D01*
X1361947Y6999223D01*
X1334262Y6990079D01*
X1315720Y6971537D01*
X1306576Y6953250D01*
X1306576Y6925310D01*
X1315720Y6907021D01*
X1334262Y6888479D01*
X1500378Y6799834D02*
G01*
X1343405Y6799834D01*
X1315720Y6790689D01*
X1306576Y6772147D01*
X1306576Y6753605D01*
X1435862Y6827520D02*
G01*
X1435862Y6762750D01*
X1500378Y6692645D02*
G01*
X1306576Y6692645D01*
X1398778Y6692645D02*
G01*
X1426463Y6664960D01*
X1435862Y6646418D01*
X1435862Y6618731D01*
X1426463Y6600189D01*
X1398778Y6591045D01*
X1306576Y6591045D01*
X1380489Y6530086D02*
G01*
X1380489Y6419342D01*
X1398778Y6419342D01*
X1417320Y6428486D01*
X1426463Y6437629D01*
X1435862Y6456171D01*
X1435862Y6483857D01*
X1426463Y6502400D01*
X1408176Y6520942D01*
X1380489Y6530086D01*
X1361947Y6530086D01*
X1334262Y6520942D01*
X1315720Y6502400D01*
X1306576Y6483857D01*
X1306576Y6456171D01*
X1315720Y6437629D01*
X1334262Y6419342D01*
X1435862Y6358381D02*
G01*
X1306576Y6358381D01*
X1380489Y6358381D02*
G01*
X1408176Y6348984D01*
X1426463Y6330695D01*
X1435862Y6312154D01*
X1435862Y6284468D01*
X1917700Y6018529D02*
G01*
X1917700Y5827521D01*
X1917700Y5918454D02*
G01*
X1944877Y5945631D01*
X1963165Y5954776D01*
X1990343Y5954776D01*
X2008631Y5945631D01*
X2017775Y5918454D01*
X2017775Y5827521D01*
X2104897Y6018529D02*
G01*
X2104897Y5863844D01*
X2114041Y5836665D01*
X2132329Y5827521D01*
X2150363Y5827521D01*
X2077720Y5954776D02*
G01*
X2141220Y5954776D01*
X2237740Y6018529D02*
G01*
X2237740Y5863844D01*
X2246884Y5836665D01*
X2264918Y5827521D01*
X2283206Y5827521D01*
X2210308Y5954776D02*
G01*
X2274061Y5954776D01*
X2343150Y5954776D02*
G01*
X2343150Y5763768D01*
X2343150Y5927597D02*
G01*
X2361438Y5945631D01*
X2379472Y5954776D01*
X2406904Y5954776D01*
X2424938Y5945631D01*
X2443225Y5927597D01*
X2452370Y5900165D01*
X2452370Y5882131D01*
X2443225Y5854700D01*
X2424938Y5836665D01*
X2406904Y5827521D01*
X2379472Y5827521D01*
X2361438Y5836665D01*
X2343150Y5854700D01*
X2612136Y5927597D02*
G01*
X2603245Y5945631D01*
X2575813Y5954776D01*
X2548636Y5954776D01*
X2521458Y5945631D01*
X2512313Y5927597D01*
X2521458Y5909310D01*
X2539491Y5900165D01*
X2584958Y5891021D01*
X2603245Y5882131D01*
X2612136Y5863844D01*
X2612136Y5854700D01*
X2603245Y5836665D01*
X2575813Y5827521D01*
X2548636Y5827521D01*
X2521458Y5836665D01*
X2512313Y5854700D01*
X2681224Y5936487D02*
G01*
X2672334Y5927597D01*
X2681224Y5918454D01*
X2690368Y5927597D01*
X2681224Y5936487D01*
X2681224Y5872987D02*
G01*
X2672334Y5863844D01*
X2681224Y5854700D01*
X2690368Y5863844D01*
X2681224Y5872987D01*
X2914141Y6054852D02*
G01*
X2750311Y5763768D01*
X3137661Y6054852D02*
G01*
X2974086Y5763768D01*
X3297681Y5927597D02*
G01*
X3288538Y5945631D01*
X3261359Y5954776D01*
X3234181Y5954776D01*
X3206750Y5945631D01*
X3197606Y5927597D01*
X3206750Y5909310D01*
X3225038Y5900165D01*
X3270504Y5891021D01*
X3288538Y5882131D01*
X3297681Y5863844D01*
X3297681Y5854700D01*
X3288538Y5836665D01*
X3261359Y5827521D01*
X3234181Y5827521D01*
X3206750Y5836665D01*
X3197606Y5854700D01*
X3357625Y6018529D02*
G01*
X3357625Y5827521D01*
X3357625Y5918454D02*
G01*
X3385058Y5945631D01*
X3403091Y5954776D01*
X3430524Y5954776D01*
X3448558Y5945631D01*
X3457702Y5918454D01*
X3457702Y5827521D01*
X3563111Y5954776D02*
G01*
X3545077Y5945631D01*
X3526790Y5927597D01*
X3517645Y5900165D01*
X3517645Y5882131D01*
X3526790Y5854700D01*
X3545077Y5836665D01*
X3563111Y5827521D01*
X3590543Y5827521D01*
X3608577Y5836665D01*
X3626865Y5854700D01*
X3635756Y5882131D01*
X3635756Y5900165D01*
X3626865Y5927597D01*
X3608577Y5945631D01*
X3590543Y5954776D01*
X3563111Y5954776D01*
X3695954Y5954776D02*
G01*
X3695954Y5827521D01*
X3695954Y5918454D02*
G01*
X3723131Y5945631D01*
X3741420Y5954776D01*
X3768597Y5954776D01*
X3786886Y5945631D01*
X3795775Y5918454D01*
X3795775Y5827521D01*
X3864863Y5872987D02*
G01*
X3855974Y5863844D01*
X3864863Y5854700D01*
X3874008Y5863844D01*
X3864863Y5872987D01*
X4043172Y5927597D02*
G01*
X4024884Y5945631D01*
X4006850Y5954776D01*
X3979418Y5954776D01*
X3961384Y5945631D01*
X3943095Y5927597D01*
X3933952Y5900165D01*
X3933952Y5882131D01*
X3943095Y5854700D01*
X3961384Y5836665D01*
X3979418Y5827521D01*
X4006850Y5827521D01*
X4024884Y5836665D01*
X4043172Y5854700D01*
X4148581Y5954776D02*
G01*
X4130547Y5945631D01*
X4112259Y5927597D01*
X4103115Y5900165D01*
X4103115Y5882131D01*
X4112259Y5854700D01*
X4130547Y5836665D01*
X4148581Y5827521D01*
X4175759Y5827521D01*
X4194047Y5836665D01*
X4212336Y5854700D01*
X4221225Y5882131D01*
X4221225Y5900165D01*
X4212336Y5927597D01*
X4194047Y5945631D01*
X4175759Y5954776D01*
X4148581Y5954776D01*
X4390390Y6018529D02*
G01*
X4390390Y5827521D01*
X4390390Y5927597D02*
G01*
X4372356Y5945631D01*
X4354068Y5954776D01*
X4326890Y5954776D01*
X4308602Y5945631D01*
X4290313Y5927597D01*
X4281424Y5900165D01*
X4281424Y5882131D01*
X4290313Y5854700D01*
X4308602Y5836665D01*
X4326890Y5827521D01*
X4354068Y5827521D01*
X4372356Y5836665D01*
X4390390Y5854700D01*
X4450334Y5900165D02*
G01*
X4559554Y5900165D01*
X4559554Y5918454D01*
X4550409Y5936487D01*
X4541265Y5945631D01*
X4523231Y5954776D01*
X4495800Y5954776D01*
X4477765Y5945631D01*
X4459477Y5927597D01*
X4450334Y5900165D01*
X4450334Y5882131D01*
X4459477Y5854700D01*
X4477765Y5836665D01*
X4495800Y5827521D01*
X4523231Y5827521D01*
X4541265Y5836665D01*
X4559554Y5854700D01*
X4719574Y5927597D02*
G01*
X4710429Y5945631D01*
X4683252Y5954776D01*
X4655820Y5954776D01*
X4628641Y5945631D01*
X4619497Y5927597D01*
X4628641Y5909310D01*
X4646675Y5900165D01*
X4692141Y5891021D01*
X4710429Y5882131D01*
X4719574Y5863844D01*
X4719574Y5854700D01*
X4710429Y5836665D01*
X4683252Y5827521D01*
X4655820Y5827521D01*
X4628641Y5836665D01*
X4619497Y5854700D01*
X845312Y4813300D02*
G01*
X778510Y4813300D01*
X845312Y4813300D02*
G01*
X778510Y4768850D01*
X845312Y4768850D02*
G01*
X778510Y4768850D01*
X829310Y4700015D02*
G01*
X835913Y4703318D01*
X842263Y4709668D01*
X845312Y4716018D01*
X845312Y4728718D01*
X842263Y4735068D01*
X835913Y4741418D01*
X829310Y4744465D01*
X819912Y4747768D01*
X803910Y4747768D01*
X794512Y4744465D01*
X788162Y4741418D01*
X781812Y4735068D01*
X778510Y4728718D01*
X778510Y4716018D01*
X781812Y4709668D01*
X788162Y4703318D01*
X794512Y4700015D01*
X882142Y5283200D02*
G01*
X888237Y5271262D01*
X905763Y5253736D01*
X781812Y5253736D01*
X918463Y4306062D02*
G01*
X918463Y4241292D01*
X871220Y4276597D01*
X871220Y4258818D01*
X865378Y4247134D01*
X859536Y4241292D01*
X841755Y4235195D01*
X830071Y4235195D01*
X812292Y4241292D01*
X800354Y4252976D01*
X794512Y4270755D01*
X794512Y4288536D01*
X800354Y4306062D01*
X806195Y4312157D01*
X818134Y4318000D01*
X5157977Y8851900D02*
G01*
X4964175Y8851900D01*
X5157977Y8851900D02*
G01*
X5157977Y8731758D01*
X5065775Y8851900D02*
G01*
X5065775Y8777986D01*
X4964175Y8851900D02*
G01*
X4964175Y8731758D01*
X5130291Y8541512D02*
G01*
X5148834Y8560054D01*
X5157977Y8587739D01*
X5157977Y8624570D01*
X5148834Y8652510D01*
X5130291Y8670797D01*
X5111750Y8670797D01*
X5093461Y8661654D01*
X5084063Y8652510D01*
X5074920Y8633968D01*
X5056377Y8578595D01*
X5047234Y8560054D01*
X5038090Y8550910D01*
X5019547Y8541512D01*
X4991861Y8541512D01*
X4973320Y8560054D01*
X4964175Y8587739D01*
X4964175Y8624570D01*
X4973320Y8652510D01*
X4991861Y8670797D01*
X5157977Y8480552D02*
G01*
X4964175Y8480552D01*
X5157977Y8480552D02*
G01*
X5157977Y8397494D01*
X5148834Y8369808D01*
X5139690Y8360410D01*
X5121147Y8351265D01*
X5093461Y8351265D01*
X5074920Y8360410D01*
X5065775Y8369808D01*
X5056377Y8397494D01*
X5056377Y8480552D01*
X5047234Y8290305D02*
G01*
X5047234Y8124189D01*
X5157977Y8044687D02*
G01*
X5157977Y7943087D01*
X5084063Y7998460D01*
X5084063Y7970773D01*
X5074920Y7952231D01*
X5065775Y7943087D01*
X5038090Y7933689D01*
X5019547Y7933689D01*
X4991861Y7943087D01*
X4973320Y7961629D01*
X4964175Y7989315D01*
X4964175Y8017002D01*
X4973320Y8044687D01*
X4982463Y8053831D01*
X5001006Y8063229D01*
X5111750Y7863586D02*
G01*
X5121147Y7863586D01*
X5139690Y7854442D01*
X5148834Y7845044D01*
X5157977Y7826755D01*
X5157977Y7789671D01*
X5148834Y7771129D01*
X5139690Y7761986D01*
X5121147Y7752842D01*
X5102606Y7752842D01*
X5084063Y7761986D01*
X5056377Y7780528D01*
X4964175Y7872729D01*
X4964175Y7743444D01*
X4141977Y8826500D02*
G01*
X3948175Y8780271D01*
X4141977Y8734044D02*
G01*
X3948175Y8780271D01*
X4141977Y8734044D02*
G01*
X3948175Y8688070D01*
X4141977Y8641842D02*
G01*
X3948175Y8688070D01*
X4141977Y8580881D02*
G01*
X3948175Y8580881D01*
X4141977Y8580881D02*
G01*
X4141977Y8460739D01*
X4049775Y8580881D02*
G01*
X4049775Y8506968D01*
X3948175Y8580881D02*
G01*
X3948175Y8460739D01*
X4141977Y8399779D02*
G01*
X3948175Y8399779D01*
X4141977Y8399779D02*
G01*
X3948175Y8325865D01*
X4141977Y8251952D02*
G01*
X3948175Y8325865D01*
X4141977Y8251952D02*
G01*
X3948175Y8251952D01*
X4141977Y8135620D02*
G01*
X4132834Y8154162D01*
X4114291Y8172450D01*
X4095750Y8181847D01*
X4068063Y8190992D01*
X4022090Y8190992D01*
X3994150Y8181847D01*
X3975861Y8172450D01*
X3957320Y8154162D01*
X3948175Y8135620D01*
X3948175Y8098789D01*
X3957320Y8080247D01*
X3975861Y8061705D01*
X3994150Y8052562D01*
X4022090Y8043163D01*
X4068063Y8043163D01*
X4095750Y8052562D01*
X4114291Y8061705D01*
X4132834Y8080247D01*
X4141977Y8098789D01*
X4141977Y8135620D01*
X4114291Y7852918D02*
G01*
X4132834Y7871460D01*
X4141977Y7899145D01*
X4141977Y7936229D01*
X4132834Y7963915D01*
X4114291Y7982204D01*
X4095750Y7982204D01*
X4077461Y7973060D01*
X4068063Y7963915D01*
X4058920Y7945373D01*
X4040377Y7890002D01*
X4031234Y7871460D01*
X4022090Y7862315D01*
X4003547Y7852918D01*
X3975861Y7852918D01*
X3957320Y7871460D01*
X3948175Y7899145D01*
X3948175Y7936229D01*
X3957320Y7963915D01*
X3975861Y7982204D01*
X3735577Y8775700D02*
G01*
X3541775Y8775700D01*
X3735577Y8775700D02*
G01*
X3735577Y8710929D01*
X3726434Y8683244D01*
X3707891Y8664955D01*
X3689350Y8655558D01*
X3661663Y8646413D01*
X3615690Y8646413D01*
X3587750Y8655558D01*
X3569461Y8664955D01*
X3550920Y8683244D01*
X3541775Y8710929D01*
X3541775Y8775700D01*
X3698747Y8585454D02*
G01*
X3707891Y8566912D01*
X3735577Y8539226D01*
X3541775Y8539226D01*
X3735577Y8336026D02*
G01*
X3541775Y8336026D01*
X3735577Y8336026D02*
G01*
X3541775Y8262112D01*
X3735577Y8188197D02*
G01*
X3541775Y8262112D01*
X3735577Y8188197D02*
G01*
X3541775Y8188197D01*
X3735577Y8127237D02*
G01*
X3726434Y8118094D01*
X3735577Y8108950D01*
X3744975Y8118094D01*
X3735577Y8127237D01*
X3671061Y8118094D02*
G01*
X3541775Y8118094D01*
X3671061Y8047989D02*
G01*
X3541775Y8047989D01*
X3633977Y8047989D02*
G01*
X3661663Y8020050D01*
X3671061Y8001762D01*
X3671061Y7974076D01*
X3661663Y7955534D01*
X3633977Y7946389D01*
X3541775Y7946389D01*
X3735577Y7885429D02*
G01*
X3726434Y7876031D01*
X3735577Y7866887D01*
X3744975Y7876031D01*
X3735577Y7885429D01*
X3671061Y7876031D02*
G01*
X3541775Y7876031D01*
D11*
X2725165Y4887213D02*
G01*
X2681731Y4772913D01*
X2725165Y4887213D02*
G01*
X2768854Y4772913D01*
X2697988Y4811013D02*
G01*
X2752597Y4811013D01*
X2886456Y4860036D02*
G01*
X2881122Y4870957D01*
X2870200Y4881879D01*
X2859277Y4887213D01*
X2837434Y4887213D01*
X2826511Y4881879D01*
X2815590Y4870957D01*
X2810256Y4860036D01*
X2804922Y4843779D01*
X2804922Y4816347D01*
X2810256Y4800092D01*
X2815590Y4789170D01*
X2826511Y4778247D01*
X2837434Y4772913D01*
X2859277Y4772913D01*
X2870200Y4778247D01*
X2881122Y4789170D01*
X2886456Y4800092D01*
X2725165Y4379213D02*
G01*
X2681731Y4264913D01*
X2725165Y4379213D02*
G01*
X2768854Y4264913D01*
X2697988Y4303013D02*
G01*
X2752597Y4303013D01*
X2886456Y4352036D02*
G01*
X2881122Y4362957D01*
X2870200Y4373879D01*
X2859277Y4379213D01*
X2837434Y4379213D01*
X2826511Y4373879D01*
X2815590Y4362957D01*
X2810256Y4352036D01*
X2804922Y4335779D01*
X2804922Y4308347D01*
X2810256Y4292092D01*
X2815590Y4281170D01*
X2826511Y4270247D01*
X2837434Y4264913D01*
X2859277Y4264913D01*
X2870200Y4270247D01*
X2881122Y4281170D01*
X2886456Y4292092D01*
X5034788Y3850894D02*
G01*
X5034788Y3752850D01*
X4985765Y3801871D02*
G01*
X5083809Y3801871D01*
X4985765Y5338063D02*
G01*
X5083809Y5338063D01*
X3321558Y4872989D02*
G01*
X3321558Y4678934D01*
X3450843Y4872989D02*
G01*
X3450843Y4678934D01*
X3321558Y4780534D02*
G01*
X3450843Y4780534D01*
X3511804Y4872989D02*
G01*
X3511804Y4678934D01*
X3511804Y4678934D02*
G01*
X3622802Y4678934D01*
X3683761Y4872989D02*
G01*
X3683761Y4678934D01*
X3813047Y4872989D02*
G01*
X3683761Y4743450D01*
X3729990Y4789678D02*
G01*
X3813047Y4678934D01*
X3874008Y4761992D02*
G01*
X4040124Y4761992D01*
X4101084Y4872989D02*
G01*
X4101084Y4678934D01*
X4101084Y4872989D02*
G01*
X4184395Y4872989D01*
X4212081Y4863592D01*
X4221225Y4854447D01*
X4230624Y4835905D01*
X4230624Y4808220D01*
X4221225Y4789678D01*
X4212081Y4780534D01*
X4184395Y4771389D01*
X4101084Y4771389D01*
X4291584Y4872989D02*
G01*
X4291584Y4678934D01*
X4291584Y4872989D02*
G01*
X4365243Y4678934D01*
X4439158Y4872989D02*
G01*
X4365243Y4678934D01*
X4439158Y4872989D02*
G01*
X4439158Y4678934D01*
X4555743Y4872989D02*
G01*
X4527804Y4863592D01*
X4509515Y4835905D01*
X4500118Y4789678D01*
X4500118Y4761992D01*
X4509515Y4715763D01*
X4527804Y4688078D01*
X4555743Y4678934D01*
X4574031Y4678934D01*
X4601718Y4688078D01*
X4620259Y4715763D01*
X4629404Y4761992D01*
X4629404Y4789678D01*
X4620259Y4835905D01*
X4601718Y4863592D01*
X4574031Y4872989D01*
X4555743Y4872989D01*
X4690363Y4835905D02*
G01*
X4708906Y4845050D01*
X4736591Y4872989D01*
X4736591Y4678934D01*
D10*
X3321811Y4496562D02*
G01*
X3321811Y4401057D01*
X3351784Y4496562D02*
G01*
X3351784Y4401057D01*
X3351784Y4496562D02*
G01*
X3415284Y4401057D01*
X3415284Y4496562D02*
G01*
X3415284Y4401057D01*
X3445256Y4496562D02*
G01*
X3445256Y4401057D01*
X3445256Y4496562D02*
G01*
X3486150Y4496562D01*
X3499865Y4491989D01*
X3504438Y4487418D01*
X3509009Y4478273D01*
X3509009Y4464557D01*
X3504438Y4455668D01*
X3499865Y4451095D01*
X3486150Y4446523D01*
X3445256Y4446523D01*
X3538981Y4496562D02*
G01*
X3538981Y4428236D01*
X3543554Y4414773D01*
X3552697Y4405629D01*
X3566159Y4401057D01*
X3575304Y4401057D01*
X3589020Y4405629D01*
X3598163Y4414773D01*
X3602736Y4428236D01*
X3602736Y4496562D01*
X3664458Y4496562D02*
G01*
X3664458Y4401057D01*
X3632708Y4496562D02*
G01*
X3696208Y4496562D01*
X3730752Y4455668D02*
G01*
X3726179Y4451095D01*
X3730752Y4446523D01*
X3735324Y4451095D01*
X3730752Y4455668D01*
X3730752Y4423663D02*
G01*
X3726179Y4419345D01*
X3730752Y4414773D01*
X3735324Y4419345D01*
X3730752Y4423663D01*
X3835400Y4478273D02*
G01*
X3844543Y4482845D01*
X3858006Y4496562D01*
X3858006Y4401057D01*
X3915409Y4496562D02*
G01*
X3901693Y4491989D01*
X3892550Y4478273D01*
X3887977Y4455668D01*
X3887977Y4441952D01*
X3892550Y4419345D01*
X3901693Y4405629D01*
X3915409Y4401057D01*
X3924554Y4401057D01*
X3938015Y4405629D01*
X3947159Y4419345D01*
X3951731Y4441952D01*
X3951731Y4455668D01*
X3947159Y4478273D01*
X3938015Y4491989D01*
X3924554Y4496562D01*
X3915409Y4496562D01*
X4008881Y4496562D02*
G01*
X3995420Y4491989D01*
X3986275Y4478273D01*
X3981704Y4455668D01*
X3981704Y4441952D01*
X3986275Y4419345D01*
X3995420Y4405629D01*
X4008881Y4401057D01*
X4018025Y4401057D01*
X4031741Y4405629D01*
X4040886Y4419345D01*
X4045458Y4441952D01*
X4045458Y4455668D01*
X4040886Y4478273D01*
X4031741Y4491989D01*
X4018025Y4496562D01*
X4008881Y4496562D01*
X4075429Y4441952D02*
G01*
X4157218Y4441952D01*
X4191761Y4473702D02*
G01*
X4191761Y4478273D01*
X4196334Y4487418D01*
X4200906Y4491989D01*
X4209795Y4496562D01*
X4228084Y4496562D01*
X4237227Y4491989D01*
X4241800Y4487418D01*
X4246372Y4478273D01*
X4246372Y4469129D01*
X4241800Y4460239D01*
X4232656Y4446523D01*
X4187190Y4401057D01*
X4250690Y4401057D01*
X4326127Y4496562D02*
G01*
X4280915Y4432807D01*
X4348988Y4432807D01*
X4326127Y4496562D02*
G01*
X4326127Y4401057D01*
X4406138Y4496562D02*
G01*
X4392675Y4491989D01*
X4383531Y4478273D01*
X4378959Y4455668D01*
X4378959Y4441952D01*
X4383531Y4419345D01*
X4392675Y4405629D01*
X4406138Y4401057D01*
X4415281Y4401057D01*
X4428997Y4405629D01*
X4438141Y4419345D01*
X4442713Y4441952D01*
X4442713Y4455668D01*
X4438141Y4478273D01*
X4428997Y4491989D01*
X4415281Y4496562D01*
X4406138Y4496562D01*
X4472686Y4496562D02*
G01*
X4509008Y4401057D01*
X4545329Y4496562D02*
G01*
X4509008Y4401057D01*
X4611624Y4496562D02*
G01*
X4575302Y4401057D01*
X4611624Y4496562D02*
G01*
X4647945Y4401057D01*
X4589018Y4432807D02*
G01*
X4634484Y4432807D01*
X4746243Y4473702D02*
G01*
X4741672Y4482845D01*
X4732527Y4491989D01*
X4723638Y4496562D01*
X4705350Y4496562D01*
X4696206Y4491989D01*
X4687061Y4482845D01*
X4682490Y4473702D01*
X4678172Y4460239D01*
X4678172Y4437379D01*
X4682490Y4423663D01*
X4687061Y4414773D01*
X4696206Y4405629D01*
X4705350Y4401057D01*
X4723638Y4401057D01*
X4732527Y4405629D01*
X4741672Y4414773D01*
X4746243Y4423663D01*
X3348990Y4294886D02*
G01*
X3339845Y4290313D01*
X3330702Y4281170D01*
X3326129Y4272279D01*
X3321811Y4258563D01*
X3321811Y4235704D01*
X3326129Y4222242D01*
X3330702Y4213097D01*
X3339845Y4203954D01*
X3348990Y4199381D01*
X3367277Y4199381D01*
X3376168Y4203954D01*
X3385311Y4213097D01*
X3389884Y4222242D01*
X3394456Y4235704D01*
X3394456Y4258563D01*
X3389884Y4272279D01*
X3385311Y4281170D01*
X3376168Y4290313D01*
X3367277Y4294886D01*
X3348990Y4294886D01*
X3424427Y4294886D02*
G01*
X3424427Y4226813D01*
X3429000Y4213097D01*
X3438143Y4203954D01*
X3451606Y4199381D01*
X3460750Y4199381D01*
X3474465Y4203954D01*
X3483609Y4213097D01*
X3488181Y4226813D01*
X3488181Y4294886D01*
X3549904Y4294886D02*
G01*
X3549904Y4199381D01*
X3518154Y4294886D02*
G01*
X3581654Y4294886D01*
X3611625Y4294886D02*
G01*
X3611625Y4199381D01*
X3611625Y4294886D02*
G01*
X3652520Y4294886D01*
X3666236Y4290313D01*
X3670808Y4285742D01*
X3675379Y4276597D01*
X3675379Y4263136D01*
X3670808Y4253992D01*
X3666236Y4249420D01*
X3652520Y4244847D01*
X3611625Y4244847D01*
X3705352Y4294886D02*
G01*
X3705352Y4226813D01*
X3709924Y4213097D01*
X3719068Y4203954D01*
X3732529Y4199381D01*
X3741674Y4199381D01*
X3755390Y4203954D01*
X3764534Y4213097D01*
X3769106Y4226813D01*
X3769106Y4294886D01*
X3830827Y4294886D02*
G01*
X3830827Y4199381D01*
X3799077Y4294886D02*
G01*
X3862577Y4294886D01*
X3897122Y4253992D02*
G01*
X3892550Y4249420D01*
X3897122Y4244847D01*
X3901693Y4249420D01*
X3897122Y4253992D01*
X3897122Y4222242D02*
G01*
X3892550Y4217670D01*
X3897122Y4213097D01*
X3901693Y4217670D01*
X3897122Y4222242D01*
X4056379Y4294886D02*
G01*
X4010913Y4294886D01*
X4006341Y4253992D01*
X4010913Y4258563D01*
X4024375Y4263136D01*
X4038091Y4263136D01*
X4051808Y4258563D01*
X4060697Y4249420D01*
X4065270Y4235704D01*
X4065270Y4226813D01*
X4060697Y4213097D01*
X4051808Y4203954D01*
X4038091Y4199381D01*
X4024375Y4199381D01*
X4010913Y4203954D01*
X4006341Y4208526D01*
X4001770Y4217670D01*
X4095241Y4294886D02*
G01*
X4131818Y4199381D01*
X4168140Y4294886D02*
G01*
X4131818Y4199381D01*
X4198111Y4294886D02*
G01*
X4198111Y4199381D01*
X4198111Y4294886D02*
G01*
X4229861Y4294886D01*
X4243577Y4290313D01*
X4252722Y4281170D01*
X4257040Y4272279D01*
X4261611Y4258563D01*
X4261611Y4235704D01*
X4257040Y4222242D01*
X4252722Y4213097D01*
X4243577Y4203954D01*
X4229861Y4199381D01*
X4198111Y4199381D01*
X4359909Y4272279D02*
G01*
X4355338Y4281170D01*
X4346193Y4290313D01*
X4337050Y4294886D01*
X4319015Y4294886D01*
X4309872Y4290313D01*
X4300727Y4281170D01*
X4296156Y4272279D01*
X4291584Y4258563D01*
X4291584Y4235704D01*
X4296156Y4222242D01*
X4300727Y4213097D01*
X4309872Y4203954D01*
X4319015Y4199381D01*
X4337050Y4199381D01*
X4346193Y4203954D01*
X4355338Y4213097D01*
X4359909Y4222242D01*
X4471670Y4313173D02*
G01*
X4389881Y4167631D01*
X4510786Y4294886D02*
G01*
X4560824Y4294886D01*
X4533645Y4258563D01*
X4547108Y4258563D01*
X4556252Y4253992D01*
X4560824Y4249420D01*
X4565395Y4235704D01*
X4565395Y4226813D01*
X4560824Y4213097D01*
X4551679Y4203954D01*
X4537963Y4199381D01*
X4524502Y4199381D01*
X4510786Y4203954D01*
X4506213Y4208526D01*
X4501641Y4217670D01*
X4595368Y4294886D02*
G01*
X4617974Y4199381D01*
X4640834Y4294886D02*
G01*
X4617974Y4199381D01*
X4640834Y4294886D02*
G01*
X4663440Y4199381D01*
X4686300Y4294886D02*
G01*
X4663440Y4199381D01*
D11*
X5307075Y4635245D02*
G01*
X5252720Y4635245D01*
X5247131Y4586223D01*
X5252720Y4591812D01*
X5268975Y4597145D01*
X5285486Y4597145D01*
X5301741Y4591812D01*
X5312663Y4580889D01*
X5317997Y4564634D01*
X5317997Y4553712D01*
X5312663Y4537202D01*
X5301741Y4526279D01*
X5285486Y4520945D01*
X5268975Y4520945D01*
X5252720Y4526279D01*
X5247131Y4531868D01*
X5241797Y4542789D01*
X5354065Y4635245D02*
G01*
X5397754Y4520945D01*
X5441188Y4635245D02*
G01*
X5397754Y4520945D01*
D10*
X1500378Y8445500D02*
G01*
X1306576Y8445500D01*
X1500378Y8445500D02*
G01*
X1500378Y8362442D01*
X1491234Y8334755D01*
X1482089Y8325358D01*
X1463547Y8316213D01*
X1435862Y8316213D01*
X1417320Y8325358D01*
X1408176Y8334755D01*
X1398778Y8362442D01*
X1398778Y8445500D01*
X1500378Y8255254D02*
G01*
X1306576Y8255254D01*
X1500378Y8194294D02*
G01*
X1306576Y8194294D01*
X1500378Y8194294D02*
G01*
X1500378Y8111236D01*
X1491234Y8083550D01*
X1482089Y8074152D01*
X1463547Y8065008D01*
X1445005Y8065008D01*
X1426463Y8074152D01*
X1417320Y8083550D01*
X1408176Y8111236D01*
X1408176Y8194294D01*
X1408176Y8129523D02*
G01*
X1306576Y8065008D01*
X676147Y7974837D02*
G01*
X689610Y7981695D01*
X703326Y7995412D01*
X710184Y8009128D01*
X710184Y8036305D01*
X703326Y8050021D01*
X689610Y8063484D01*
X676147Y8070342D01*
X655573Y8077200D01*
X621537Y8077200D01*
X600963Y8070342D01*
X587502Y8063484D01*
X573786Y8050021D01*
X566928Y8036305D01*
X566928Y8009128D01*
X573786Y7995412D01*
X587502Y7981695D01*
X600963Y7974837D01*
X621537Y7974837D01*
X621537Y8009128D02*
G01*
X621537Y7974837D01*
X689610Y8248395D02*
G01*
X703326Y8262112D01*
X710184Y8282431D01*
X710184Y8309863D01*
X703326Y8330184D01*
X689610Y8343900D01*
X676147Y8343900D01*
X662431Y8337042D01*
X655573Y8330184D01*
X648715Y8316721D01*
X635254Y8275828D01*
X628395Y8262112D01*
X621537Y8255254D01*
X607821Y8248395D01*
X587502Y8248395D01*
X573786Y8262112D01*
X566928Y8282431D01*
X566928Y8309863D01*
X573786Y8330184D01*
X587502Y8343900D01*
X689610Y8536431D02*
G01*
X566928Y8536431D01*
X628395Y8597900D02*
G01*
X628395Y8475218D01*
D12*
X1500378Y10007600D02*
G01*
X1306576Y10007600D01*
X1306576Y10007600D02*
G01*
X1306576Y9896855D01*
X1500378Y9835895D02*
G01*
X1491234Y9826497D01*
X1500378Y9817354D01*
X1509776Y9826497D01*
X1500378Y9835895D01*
X1435862Y9826497D02*
G01*
X1306576Y9826497D01*
X1435862Y9645650D02*
G01*
X1288034Y9645650D01*
X1260347Y9654794D01*
X1250950Y9663937D01*
X1241805Y9682479D01*
X1241805Y9710165D01*
X1250950Y9728708D01*
X1408176Y9645650D02*
G01*
X1426463Y9663937D01*
X1435862Y9682479D01*
X1435862Y9710165D01*
X1426463Y9728708D01*
X1408176Y9747250D01*
X1380489Y9756394D01*
X1361947Y9756394D01*
X1334262Y9747250D01*
X1315720Y9728708D01*
X1306576Y9710165D01*
X1306576Y9682479D01*
X1315720Y9663937D01*
X1334262Y9645650D01*
X1500378Y9584689D02*
G01*
X1306576Y9584689D01*
X1398778Y9584689D02*
G01*
X1426463Y9556750D01*
X1435862Y9538462D01*
X1435862Y9510776D01*
X1426463Y9492234D01*
X1398778Y9483089D01*
X1306576Y9483089D01*
X1500378Y9394189D02*
G01*
X1343405Y9394189D01*
X1315720Y9385045D01*
X1306576Y9366504D01*
X1306576Y9348215D01*
X1435862Y9422129D02*
G01*
X1435862Y9357360D01*
D13*
X1231900Y4368800D02*
G01*
X1104900Y4248150D01*
X952500Y5524500D02*
G01*
X952500Y4013200D01*
X1371600Y5524500D02*
G01*
X1371600Y4025900D01*
X889000Y5461000D02*
G01*
X889000Y5334000D01*
X812800Y5397500D01*
X889000Y5461000D01*
X1244600Y5359400D02*
G01*
X1123950Y5238750D01*
X1231900Y4851400D02*
G01*
X1104900Y4730750D01*
X1498600Y5524500D02*
G01*
X1498600Y4024503D01*
X738606Y4024503D01*
X738606Y5524500D01*
X1498600Y5524500D01*
D14*
X2527300Y9867900D02*
G01*
X2590800Y9804400D01*
X2654300Y9867900D01*
X2781300Y9867900D01*
X2844800Y9804400D01*
X2908300Y9867900D01*
X3035300Y9867900D01*
X3098800Y9804400D01*
X3162300Y9867900D01*
X3289300Y9867900D01*
X3352800Y9804400D01*
X3416300Y9867900D01*
X3543300Y9867900D01*
X3606800Y9804400D01*
X3670300Y9867900D01*
X3797300Y9867900D01*
X3860800Y9804400D01*
X3924300Y9867900D01*
X4051300Y9867900D01*
X4114800Y9804400D01*
X4178300Y9867900D01*
X4305300Y9867900D01*
X4368800Y9804400D01*
X4432300Y9867900D01*
X4559300Y9867900D01*
X4622800Y9804400D01*
X4686300Y9867900D01*
X4813300Y9867900D01*
X4876800Y9804400D01*
X4876800Y9677400D01*
X4813300Y9613900D01*
X4876800Y9550400D01*
X4876800Y9423400D01*
X4813300Y9359900D01*
X4686300Y9359900D01*
X4622800Y9423400D01*
X4559300Y9359900D01*
X4432300Y9359900D01*
X4368800Y9423400D01*
X4305300Y9359900D01*
X4178300Y9359900D01*
X4114800Y9423400D01*
X4051300Y9359900D01*
X3924300Y9359900D01*
X3860800Y9423400D01*
X3797300Y9359900D01*
X3670300Y9359900D01*
X3606800Y9423400D01*
X3543300Y9359900D01*
X3416300Y9359900D01*
X3352800Y9423400D01*
X3289300Y9359900D01*
X3162300Y9359900D01*
X3098800Y9423400D01*
X3035300Y9359900D01*
X2908300Y9359900D01*
X2844800Y9423400D01*
X2781300Y9359900D01*
X2654300Y9359900D01*
X2590800Y9423400D01*
X2527300Y9359900D01*
X2400300Y9359900D01*
X2336800Y9423400D01*
X2336800Y9550400D01*
X2400300Y9613900D01*
X2336800Y9677400D01*
X2336800Y9804400D01*
X2400300Y9867900D01*
X2527300Y9867900D01*
X2336800Y7264400D02*
G01*
X2400300Y7327900D01*
X2527300Y7327900D01*
X2590800Y7264400D01*
X2654300Y7327900D01*
X2781300Y7327900D01*
X2844800Y7264400D01*
X2908300Y7327900D01*
X3035300Y7327900D01*
X3098800Y7264400D01*
X3162300Y7327900D01*
X3289300Y7327900D01*
X3352800Y7264400D01*
X3416300Y7327900D01*
X3543300Y7327900D01*
X3606800Y7264400D01*
X3670300Y7327900D01*
X3797300Y7327900D01*
X3860800Y7264400D01*
X3924300Y7327900D01*
X4051300Y7327900D01*
X4114800Y7264400D01*
X4178300Y7327900D01*
X4305300Y7327900D01*
X4368800Y7264400D01*
X4432300Y7327900D01*
X4559300Y7327900D01*
X4622800Y7264400D01*
X4686300Y7327900D01*
X4813300Y7327900D01*
X4876800Y7264400D01*
X4876800Y7137400D01*
X4813300Y7073900D01*
X4876800Y7010400D01*
X4876800Y6883400D01*
X4813300Y6819900D01*
X4686300Y6819900D01*
X4622800Y6883400D01*
X4559300Y6819900D01*
X4432300Y6819900D01*
X4368800Y6883400D01*
X4305300Y6819900D01*
X4178300Y6819900D01*
X4114800Y6883400D01*
X4051300Y6819900D01*
X3924300Y6819900D01*
X3860800Y6883400D01*
X3797300Y6819900D01*
X3670300Y6819900D01*
X3606800Y6883400D01*
X3543300Y6819900D01*
X3416300Y6819900D01*
X3352800Y6883400D01*
X3289300Y6819900D01*
X3162300Y6819900D01*
X3098800Y6883400D01*
X3035300Y6819900D01*
X2908300Y6819900D01*
X2844800Y6883400D01*
X2781300Y6819900D01*
X2654300Y6819900D01*
X2590800Y6883400D01*
X2527300Y6819900D01*
X2400300Y6819900D01*
X2336800Y6883400D01*
X2336800Y7010400D01*
X2400300Y7073900D01*
X2336800Y7137400D01*
X2336800Y7264400D01*
X2336800Y9867900D02*
G01*
X5384800Y9867900D01*
X5638800Y9613900D01*
X5638800Y7073900D01*
X5384800Y6819900D01*
X1701800Y6819900D01*
X1701800Y9613900D01*
X2336800Y9613900D01*
X2336800Y9867900D01*
D13*
X2195702Y5585993D02*
G01*
X5633694Y5585993D01*
X2195702Y3566007D02*
G01*
X2195702Y5585993D01*
X5633694Y3566007D02*
G01*
X5633694Y5585993D01*
X2195702Y3566007D02*
G01*
X5633694Y3566007D01*
X1181100Y8763000D02*
G01*
X1181100Y7759700D01*
X863600Y7759700D01*
X863600Y8763000D01*
X1181100Y8763000D01*
X2730500Y10414000D02*
G01*
X2730500Y8991600D01*
X876300Y8991600D01*
X876300Y10414000D01*
X2730500Y10414000D01*
X2209800Y9817100D02*
G01*
X2209800Y9575800D01*
X2070100Y9575800D01*
X2070100Y9817100D01*
X2209800Y9817100D01*
X749300Y7493000D02*
G01*
X749300Y6223000D01*
X2527300Y6223000D01*
X2527300Y7493000D01*
X1003300Y7493000D01*
X749300Y7493000D02*
G01*
X1003300Y7493000D01*
G75*
G01
X1333983Y5283200D02*
G03X1333983Y5283200I-165583J0D01*
G75*
G01
X1326871Y4774489D02*
G03X1326871Y4774489I-165583J0D01*
G75*
G01
X1321283Y4279900D02*
G03X1321283Y4279900I-165583J0D01*
G75*
G01
X1740002Y8255000D02*
G03X1740002Y8255000I-736702J0D01*
G75*
G01
X2580208Y10121900D02*
G03X2580208Y10121900I-154508J0D01*
G75*
G01
X2580208Y9258300D02*
G03X2580208Y9258300I-154508J0D01*
G75*
G01
X1077366Y10210800D02*
G03X1077366Y10210800I-74066J0D01*
M02*
