G04 Layer: BottomSilkscreenLayer*
G04 EasyEDA v6.5.9, 2022-08-04 20:05:31*
G04 f7d3399ff3ef42be8c4f0a230c2b0d44,4bb84c5f6c124816bf94f4484d05adb3,10*
G04 Gerber Generator version 0.2*
G04 Scale: 100 percent, Rotated: No, Reflected: No *
G04 Dimensions in millimeters *
G04 leading zeros omitted , absolute positions ,4 integer and 5 decimal *
%FSLAX45Y45*%
%MOMM*%

%ADD10C,0.2032*%

%LPD*%
D10*
X1448054Y6531709D02*
G01*
X1461688Y6545346D01*
X1482143Y6552163D01*
X1509415Y6552163D01*
X1529869Y6545346D01*
X1543507Y6531709D01*
X1543507Y6518071D01*
X1536689Y6504437D01*
X1529869Y6497617D01*
X1516235Y6490799D01*
X1475325Y6477162D01*
X1461688Y6470345D01*
X1454871Y6463527D01*
X1448054Y6449890D01*
X1448054Y6429435D01*
X1461688Y6415798D01*
X1482143Y6408981D01*
X1509415Y6408981D01*
X1529869Y6415798D01*
X1543507Y6429435D01*
X1300779Y6518071D02*
G01*
X1307599Y6531709D01*
X1321234Y6545346D01*
X1334871Y6552163D01*
X1362143Y6552163D01*
X1375780Y6545346D01*
X1389415Y6531709D01*
X1396235Y6518071D01*
X1403052Y6497617D01*
X1403052Y6463527D01*
X1396235Y6443073D01*
X1389415Y6429435D01*
X1375780Y6415798D01*
X1362143Y6408981D01*
X1334871Y6408981D01*
X1321234Y6415798D01*
X1307599Y6429435D01*
X1300779Y6443073D01*
X1255781Y6552163D02*
G01*
X1255781Y6408981D01*
X1255781Y6408981D02*
G01*
X1173962Y6408981D01*
X1448054Y6798409D02*
G01*
X1461688Y6812046D01*
X1482143Y6818863D01*
X1509415Y6818863D01*
X1529869Y6812046D01*
X1543507Y6798409D01*
X1543507Y6784771D01*
X1536689Y6771137D01*
X1529869Y6764317D01*
X1516235Y6757499D01*
X1475325Y6743862D01*
X1461688Y6737045D01*
X1454871Y6730227D01*
X1448054Y6716590D01*
X1448054Y6696135D01*
X1461688Y6682498D01*
X1482143Y6675681D01*
X1509415Y6675681D01*
X1529869Y6682498D01*
X1543507Y6696135D01*
X1403052Y6818863D02*
G01*
X1403052Y6675681D01*
X1403052Y6818863D02*
G01*
X1355326Y6818863D01*
X1334871Y6812046D01*
X1321234Y6798409D01*
X1314416Y6784771D01*
X1307599Y6764317D01*
X1307599Y6730227D01*
X1314416Y6709773D01*
X1321234Y6696135D01*
X1334871Y6682498D01*
X1355326Y6675681D01*
X1403052Y6675681D01*
X1208054Y6818863D02*
G01*
X1262598Y6675681D01*
X1208054Y6818863D02*
G01*
X1153507Y6675681D01*
X1242143Y6723407D02*
G01*
X1173962Y6723407D01*
X1461688Y7060163D02*
G01*
X1529869Y7060163D01*
X1536689Y6998799D01*
X1529869Y7005617D01*
X1509415Y7012437D01*
X1488960Y7012437D01*
X1468508Y7005617D01*
X1454871Y6991982D01*
X1448054Y6971527D01*
X1448054Y6957890D01*
X1454871Y6937435D01*
X1468508Y6923798D01*
X1488960Y6916981D01*
X1509415Y6916981D01*
X1529869Y6923798D01*
X1536689Y6930618D01*
X1543507Y6944253D01*
X1403052Y7060163D02*
G01*
X1348508Y6916981D01*
X1293962Y7060163D02*
G01*
X1348508Y6916981D01*
X1441234Y7267371D02*
G01*
X1448054Y7281009D01*
X1461688Y7294646D01*
X1475325Y7301463D01*
X1502597Y7301463D01*
X1516235Y7294646D01*
X1529869Y7281009D01*
X1536689Y7267371D01*
X1543507Y7246917D01*
X1543507Y7212827D01*
X1536689Y7192373D01*
X1529869Y7178735D01*
X1516235Y7165098D01*
X1502597Y7158281D01*
X1475325Y7158281D01*
X1461688Y7165098D01*
X1448054Y7178735D01*
X1441234Y7192373D01*
X1441234Y7212827D01*
X1475325Y7212827D02*
G01*
X1441234Y7212827D01*
X1396235Y7301463D02*
G01*
X1396235Y7158281D01*
X1396235Y7301463D02*
G01*
X1300779Y7158281D01*
X1300779Y7301463D02*
G01*
X1300779Y7158281D01*
X1255781Y7301463D02*
G01*
X1255781Y7158281D01*
X1255781Y7301463D02*
G01*
X1208054Y7301463D01*
X1187599Y7294646D01*
X1173962Y7281009D01*
X1167145Y7267371D01*
X1160325Y7246917D01*
X1160325Y7212827D01*
X1167145Y7192373D01*
X1173962Y7178735D01*
X1187599Y7165098D01*
X1208054Y7158281D01*
X1255781Y7158281D01*
X1461792Y10011501D02*
G01*
X1475427Y10025138D01*
X1495882Y10031956D01*
X1523154Y10031956D01*
X1543608Y10025138D01*
X1557246Y10011501D01*
X1557246Y9997864D01*
X1550428Y9984229D01*
X1543608Y9977409D01*
X1529974Y9970592D01*
X1489064Y9956954D01*
X1475427Y9950137D01*
X1468610Y9943320D01*
X1461792Y9929682D01*
X1461792Y9909228D01*
X1475427Y9895591D01*
X1495882Y9888773D01*
X1523154Y9888773D01*
X1543608Y9895591D01*
X1557246Y9909228D01*
X1416791Y10031956D02*
G01*
X1416791Y9888773D01*
X1416791Y10031956D02*
G01*
X1369065Y10031956D01*
X1348610Y10025138D01*
X1334973Y10011501D01*
X1328155Y9997864D01*
X1321338Y9977409D01*
X1321338Y9943320D01*
X1328155Y9922865D01*
X1334973Y9909228D01*
X1348610Y9895591D01*
X1369065Y9888773D01*
X1416791Y9888773D01*
X1221793Y10031956D02*
G01*
X1276337Y9888773D01*
X1221793Y10031956D02*
G01*
X1167246Y9888773D01*
X1255882Y9936500D02*
G01*
X1187701Y9936500D01*
X1461792Y9744801D02*
G01*
X1475427Y9758438D01*
X1495882Y9765256D01*
X1523154Y9765256D01*
X1543608Y9758438D01*
X1557246Y9744801D01*
X1557246Y9731164D01*
X1550428Y9717529D01*
X1543608Y9710709D01*
X1529974Y9703892D01*
X1489064Y9690254D01*
X1475427Y9683437D01*
X1468610Y9676620D01*
X1461792Y9662982D01*
X1461792Y9642528D01*
X1475427Y9628891D01*
X1495882Y9622073D01*
X1523154Y9622073D01*
X1543608Y9628891D01*
X1557246Y9642528D01*
X1314518Y9731164D02*
G01*
X1321338Y9744801D01*
X1334973Y9758438D01*
X1348610Y9765256D01*
X1375882Y9765256D01*
X1389519Y9758438D01*
X1403154Y9744801D01*
X1409974Y9731164D01*
X1416791Y9710709D01*
X1416791Y9676620D01*
X1409974Y9656165D01*
X1403154Y9642528D01*
X1389519Y9628891D01*
X1375882Y9622073D01*
X1348610Y9622073D01*
X1334973Y9628891D01*
X1321338Y9642528D01*
X1314518Y9656165D01*
X1269519Y9765256D02*
G01*
X1269519Y9622073D01*
X1269519Y9622073D02*
G01*
X1187701Y9622073D01*
X1454972Y9477164D02*
G01*
X1461790Y9490801D01*
X1475427Y9504438D01*
X1489064Y9511256D01*
X1516336Y9511256D01*
X1529971Y9504438D01*
X1543608Y9490801D01*
X1550426Y9477164D01*
X1557246Y9456709D01*
X1557246Y9422620D01*
X1550426Y9402165D01*
X1543608Y9388528D01*
X1529971Y9374891D01*
X1516336Y9368073D01*
X1489064Y9368073D01*
X1475427Y9374891D01*
X1461790Y9388528D01*
X1454972Y9402165D01*
X1454972Y9422620D01*
X1489064Y9422620D02*
G01*
X1454972Y9422620D01*
X1409971Y9511256D02*
G01*
X1409971Y9368073D01*
X1409971Y9511256D02*
G01*
X1314518Y9368073D01*
X1314518Y9511256D02*
G01*
X1314518Y9368073D01*
X1269517Y9511256D02*
G01*
X1269517Y9368073D01*
X1269517Y9511256D02*
G01*
X1221790Y9511256D01*
X1201336Y9504438D01*
X1187701Y9490801D01*
X1180881Y9477164D01*
X1174064Y9456709D01*
X1174064Y9422620D01*
X1180881Y9402165D01*
X1187701Y9388528D01*
X1201336Y9374891D01*
X1221790Y9368073D01*
X1269517Y9368073D01*
X1543608Y9282656D02*
G01*
X1468610Y9282656D01*
X1509519Y9228109D01*
X1489064Y9228109D01*
X1475427Y9221292D01*
X1468610Y9214474D01*
X1461790Y9194020D01*
X1461790Y9180382D01*
X1468610Y9159928D01*
X1482244Y9146291D01*
X1502699Y9139473D01*
X1523154Y9139473D01*
X1543608Y9146291D01*
X1550428Y9153110D01*
X1557246Y9166745D01*
X1409974Y9173565D02*
G01*
X1416791Y9166745D01*
X1409974Y9159928D01*
X1403154Y9166745D01*
X1409974Y9173565D01*
X1344518Y9282656D02*
G01*
X1269519Y9282656D01*
X1310429Y9228109D01*
X1289974Y9228109D01*
X1276337Y9221292D01*
X1269519Y9214474D01*
X1262700Y9194020D01*
X1262700Y9180382D01*
X1269519Y9159928D01*
X1283154Y9146291D01*
X1303609Y9139473D01*
X1324063Y9139473D01*
X1344518Y9146291D01*
X1351338Y9153110D01*
X1358155Y9166745D01*
X1217701Y9282656D02*
G01*
X1163154Y9139473D01*
X1108610Y9282656D02*
G01*
X1163154Y9139473D01*
X1548462Y8546063D02*
G01*
X1473464Y8546063D01*
X1514373Y8491517D01*
X1493918Y8491517D01*
X1480281Y8484699D01*
X1473464Y8477882D01*
X1466646Y8457427D01*
X1466646Y8443790D01*
X1473464Y8423335D01*
X1487101Y8409698D01*
X1507553Y8402881D01*
X1528008Y8402881D01*
X1548462Y8409698D01*
X1555282Y8416518D01*
X1562100Y8430153D01*
X1414828Y8436973D02*
G01*
X1421645Y8430153D01*
X1414828Y8423335D01*
X1408008Y8430153D01*
X1414828Y8436973D01*
X1349372Y8546063D02*
G01*
X1274373Y8546063D01*
X1315283Y8491517D01*
X1294828Y8491517D01*
X1281191Y8484699D01*
X1274373Y8477882D01*
X1267553Y8457427D01*
X1267553Y8443790D01*
X1274373Y8423335D01*
X1288008Y8409698D01*
X1308463Y8402881D01*
X1328917Y8402881D01*
X1349372Y8409698D01*
X1356192Y8416518D01*
X1363009Y8430153D01*
X1222555Y8546063D02*
G01*
X1168008Y8402881D01*
X1113464Y8546063D02*
G01*
X1168008Y8402881D01*
X1459826Y8042071D02*
G01*
X1466646Y8055709D01*
X1480281Y8069346D01*
X1493918Y8076163D01*
X1521190Y8076163D01*
X1534828Y8069346D01*
X1548462Y8055709D01*
X1555282Y8042071D01*
X1562100Y8021617D01*
X1562100Y7987527D01*
X1555282Y7967073D01*
X1548462Y7953435D01*
X1534828Y7939798D01*
X1521190Y7932981D01*
X1493918Y7932981D01*
X1480281Y7939798D01*
X1466646Y7953435D01*
X1459826Y7967073D01*
X1459826Y7987527D01*
X1493918Y7987527D02*
G01*
X1459826Y7987527D01*
X1414828Y8076163D02*
G01*
X1414828Y7932981D01*
X1414828Y8076163D02*
G01*
X1319372Y7932981D01*
X1319372Y8076163D02*
G01*
X1319372Y7932981D01*
X1274373Y8076163D02*
G01*
X1274373Y7932981D01*
X1274373Y8076163D02*
G01*
X1226647Y8076163D01*
X1206192Y8069346D01*
X1192555Y8055709D01*
X1185738Y8042071D01*
X1178918Y8021617D01*
X1178918Y7987527D01*
X1185738Y7967073D01*
X1192555Y7953435D01*
X1206192Y7939798D01*
X1226647Y7932981D01*
X1274373Y7932981D01*
X1521190Y8317463D02*
G01*
X1534828Y8310646D01*
X1548462Y8297009D01*
X1555282Y8283371D01*
X1562100Y8262917D01*
X1562100Y8228827D01*
X1555282Y8208373D01*
X1548462Y8194735D01*
X1534828Y8181098D01*
X1521190Y8174281D01*
X1493918Y8174281D01*
X1480281Y8181098D01*
X1466646Y8194735D01*
X1459826Y8208373D01*
X1453009Y8228827D01*
X1453009Y8262917D01*
X1459826Y8283371D01*
X1466646Y8297009D01*
X1480281Y8310646D01*
X1493918Y8317463D01*
X1521190Y8317463D01*
X1408008Y8317463D02*
G01*
X1408008Y8215190D01*
X1401190Y8194735D01*
X1387553Y8181098D01*
X1367101Y8174281D01*
X1353464Y8174281D01*
X1333009Y8181098D01*
X1319372Y8194735D01*
X1312555Y8215190D01*
X1312555Y8317463D01*
X1219827Y8317463D02*
G01*
X1219827Y8174281D01*
X1267553Y8317463D02*
G01*
X1172100Y8317463D01*
M02*
