G04 Layer: BottomLayer*
G04 EasyEDA v6.5.9, 2022-08-04 20:05:31*
G04 f7d3399ff3ef42be8c4f0a230c2b0d44,4bb84c5f6c124816bf94f4484d05adb3,10*
G04 Gerber Generator version 0.2*
G04 Scale: 100 percent, Rotated: No, Reflected: No *
G04 Dimensions in millimeters *
G04 leading zeros omitted , absolute positions ,4 integer and 5 decimal *
%FSLAX45Y45*%
%MOMM*%

%ADD10C,0.4000*%
%ADD11R,3.0000X2.4000*%
%ADD12C,2.4000*%
%ADD13C,1.5080*%
%ADD14C,3.0480*%
%ADD15C,3.0500*%
%ADD16C,1.5240*%

%LPD*%
D10*
X5366258Y3780536D02*
G01*
X5277355Y3780536D01*
X5273291Y3784600D01*
X4749800Y9740900D02*
G01*
X4749800Y10172700D01*
X2057400Y10172700D01*
X2057400Y9448800D01*
X1003300Y9448800D01*
X2971800Y9486900D02*
G01*
X2971800Y9194800D01*
X1003300Y9194800D01*
X1003300Y8509000D02*
G01*
X1003300Y9194800D01*
X2552700Y8255000D02*
G01*
X1003300Y8255000D01*
X3479800Y7200900D02*
G01*
X3479800Y7747000D01*
X2552700Y7747000D01*
X2552700Y8255000D01*
X1003300Y8001000D02*
G01*
X2311400Y8001000D01*
X2311400Y8001000D02*
G01*
X2311400Y7594600D01*
X3225800Y7594600D01*
X3225800Y7200900D01*
X1003300Y8001000D02*
G01*
X1003300Y7340600D01*
X1003300Y7239000D01*
X5366258Y5345937D02*
G01*
X5366258Y5345937D01*
X5372100Y6946900D01*
X4749800Y6946900D01*
X1003300Y6985000D02*
G01*
X1003300Y6985000D01*
X2159000Y6987585D01*
X5366258Y3805936D02*
G01*
X5366258Y3805936D01*
X4318000Y3810000D01*
X4318000Y6083300D01*
X2159000Y6083300D01*
X2159000Y7429500D01*
X2971800Y7429500D01*
X2971800Y7200900D01*
D11*
G01*
X1161313Y4774488D03*
D12*
G01*
X1161313Y5274513D03*
G01*
X1161313Y4274489D03*
D13*
G01*
X2463800Y9740900D03*
G01*
X2463800Y9486900D03*
G01*
X2717800Y9740900D03*
G01*
X2717800Y9486900D03*
G01*
X2971800Y9740900D03*
G01*
X2971800Y9486900D03*
G01*
X3225800Y9740900D03*
G01*
X3225800Y9486900D03*
G01*
X3479800Y9740900D03*
G01*
X3479800Y9486900D03*
G01*
X3733800Y9740900D03*
G01*
X3733800Y9486900D03*
G01*
X3987800Y9740900D03*
G01*
X3987800Y9486900D03*
G01*
X4241800Y9740900D03*
G01*
X4241800Y9486900D03*
G01*
X4495800Y9740900D03*
G01*
X4495800Y9486900D03*
G01*
X4749800Y9740900D03*
G01*
X4749800Y9486900D03*
G01*
X2463800Y6946900D03*
G01*
X2463800Y7200900D03*
G01*
X2717800Y7200900D03*
G01*
X2971800Y7200900D03*
G01*
X3225800Y7200900D03*
G01*
X3479800Y7200900D03*
G01*
X3733800Y7200900D03*
G01*
X3987800Y7200900D03*
G01*
X4241800Y7200900D03*
G01*
X4495800Y7200900D03*
G01*
X4749800Y7200900D03*
G01*
X4749800Y6946900D03*
G01*
X4495800Y6946900D03*
G01*
X4241800Y6946900D03*
G01*
X3987800Y6946900D03*
G01*
X3733800Y6946900D03*
G01*
X3479800Y6946900D03*
G01*
X3225800Y6946900D03*
G01*
X2971800Y6946900D03*
G01*
X2717800Y6946900D03*
D14*
G01*
X5366258Y5345937D03*
G01*
X5366258Y3805936D03*
G01*
X2426208Y4825745D03*
D15*
G01*
X2426208Y4325873D03*
D16*
G01*
X1003300Y8509000D03*
G01*
X1003300Y8255000D03*
G01*
X1003300Y8001000D03*
G01*
X1003300Y9956800D03*
G01*
X1003300Y9702800D03*
G01*
X1003300Y9448800D03*
G01*
X1003300Y9194800D03*
G01*
X1003300Y7239000D03*
G01*
X1003300Y6985000D03*
G01*
X1003300Y6731000D03*
G01*
X1003300Y6477000D03*
M02*
